<svg xmlns="http://www.w3.org/2000/svg" width="27" height="27" viewBox="0 0 27 27"><g transform="translate(-1398 -663)"><path d="M1494.658,743a1.658,1.658,0,1,0,1.658,1.658A1.66,1.66,0,0,0,1494.658,743Zm0,2.368a.711.711,0,1,1,.71-.711A.711.711,0,0,1,1494.658,745.368Z" transform="translate(-72.5 -61.053)"/><path d="M1422.158,668.921a2.84,2.84,0,0,0-.474,5.641v1.219a1.427,1.427,0,0,1-1.031,1.366l-3.943,1.126V675.72a1.658,1.658,0,1,0-.947,0v2.825l-.651.186a2.379,2.379,0,0,0-1.718,2.277v2.583l-.574.144a2.364,2.364,0,0,0-.847.4v-15.5a2.842,2.842,0,1,0-.947,0V670.2l-2.883.668-.028.007a2.4,2.4,0,0,0-1.8,2.252v2.214l-4.3,1.418a2.369,2.369,0,0,0-1.655,2.206v1.839a2.842,2.842,0,1,0,.947,0v-1.839a1.43,1.43,0,0,1,1.015-1.309l3.989-1.317v9.221a1.656,1.656,0,1,0,.947.016v-9.551l2.993-.988a2.658,2.658,0,0,0,.767-.4v14.888a.474.474,0,0,0,.947,0v-3.494a1.418,1.418,0,0,1,1.076-1.378l.345-.086v3.775a.474.474,0,1,0,.947,0v-4.012l.574-.144a2.365,2.365,0,0,0,1.794-2.3v-2.63l4.2-1.2a2.379,2.379,0,0,0,1.718-2.277v-1.219a2.84,2.84,0,0,0-.474-5.641Zm-6.632,5.211a.711.711,0,1,1,.71.711A.711.711,0,0,1,1415.526,674.132Zm-5.921-8.289a1.895,1.895,0,1,1,1.895,1.895A1.9,1.9,0,0,1,1409.605,665.842Zm-6.869,17.763a1.895,1.895,0,1,1-1.895-1.895A1.9,1.9,0,0,1,1402.737,683.605Zm4.026,4.263a.711.711,0,1,1,.711-.711A.711.711,0,0,1,1406.763,687.868Zm3.2-13.728-2.7.89v-1.9a1.455,1.455,0,0,1,1.106-1.34l2.654-.614v1.639A1.455,1.455,0,0,1,1409.962,674.14Zm5.8,7.749a1.418,1.418,0,0,1-1.076,1.378l-.345.086v-2.346a1.427,1.427,0,0,1,1.031-1.366l.39-.112Zm6.395-8.231a1.895,1.895,0,1,1,1.895-1.895A1.9,1.9,0,0,1,1422.158,673.658Z"/><path d="M1414.184,691.246v1.965a.474.474,0,1,0,.947,0v-1.965a1.658,1.658,0,1,0-.947,0Zm.474-2.3a.711.711,0,1,1-.71.711A.711.711,0,0,1,1414.658,688.947Z" transform="translate(-11.447 -19.079)"/></g></svg>